<svg id="Layer_1" xmlns="http://www.w3.org/2000/svg" viewBox="0 0 340.6 50"><style>.st0{fill:#fff}</style><path class="st0" d="M7.8 2.2l11.7 30L31.7 0l11.7 32.2 12.4-30h7.4L43.1 50 31.6 18.1 19.5 50 .4 2.2zM88 24.4c0-6.3 2.3-11.8 7-16.3 4.6-4.5 10.2-6.8 16.6-6.8s11.9 2.3 16.5 6.9 6.9 10.1 6.9 16.5c0 6.5-2.3 11.9-6.9 16.4-4.6 4.5-10.2 6.8-16.8 6.8-5.8 0-11-2-15.6-6-5.1-4.4-7.7-10.3-7.7-17.5m6.9.1c0 5 1.7 9 5 12.2s7.1 4.8 11.5 4.8c4.7 0 8.7-1.6 11.9-4.9 3.2-3.3 4.9-7.3 4.9-12 0-4.8-1.6-8.8-4.8-12-3.2-3.3-7.1-4.9-11.8-4.9s-8.6 1.6-11.8 4.9c-3.3 3.2-4.9 7.2-4.9 11.9m83.5-22.3v38.5h13.2v6.4h-20V2.2zm49.9 22.2c0-6.3 2.3-11.8 6.9-16.3 4.6-4.5 10.2-6.8 16.6-6.8 6.4 0 11.9 2.3 16.5 6.9s6.9 10.1 6.9 16.5c0 6.5-2.3 11.9-6.9 16.4s-10.2 6.8-16.8 6.8c-5.8 0-11-2-15.6-6-5.1-4.4-7.6-10.3-7.6-17.5m6.8.1c0 5 1.7 9 5 12.2 3.3 3.2 7.1 4.8 11.5 4.8 4.7 0 8.7-1.6 11.9-4.9 3.2-3.3 4.9-7.3 4.9-12 0-4.8-1.6-8.8-4.8-12-3.2-3.3-7.1-4.9-11.8-4.9-4.7 0-8.6 1.6-11.8 4.9-3.2 3.2-4.9 7.2-4.9 11.9m84.1-.9L306.9 2.2h7.7l8.5 15.2 9.1-15.2h7.7L327 23.6l13.6 23.5H333l-10-17.2-10.2 17.2h-7.7z"/></svg>